<svg width="16" height="18" viewBox="0 0 16 18" fill="none" xmlns="http://www.w3.org/2000/svg">
<path d="M15.835 1.37199C15.835 1.09585 15.6112 0.87199 15.335 0.87199L10.835 0.87199C10.5589 0.87199 10.335 1.09585 10.335 1.37199C10.335 1.64813 10.5589 1.87199 10.835 1.87199L14.835 1.87199L14.835 5.87199C14.835 6.14813 15.0589 6.37199 15.335 6.37199C15.6112 6.37199 15.835 6.14813 15.835 5.87199L15.835 1.37199ZM5.43555 11.2715L5.7891 11.625L15.6886 1.72554L15.335 1.37199L14.9815 1.01844L5.08199 10.9179L5.43555 11.2715Z" fill="#E53F28"/>
<rect x="0.5" y="5.57031" width="11" height="11" stroke="#E53F28"/>
</svg>
